<?xml version="1.0" encoding="UTF-8"?>
<svg width="95px" height="94px" viewBox="0 0 95 94" version="1.1" xmlns="http://www.w3.org/2000/svg" xmlns:xlink="http://www.w3.org/1999/xlink">
    <title>logo纯图</title>
    <defs>
        <path d="M5.59744871e-14,46.1342913 L46.9248849,92.9320085 L63.7893312,76.1139888 C65.7095346,74.1990715 65.7138199,71.090092 63.7989027,69.1698886 C63.7957605,69.1667378 63.792614,69.1635912 63.7894632,69.1604489 L40.7014951,46.1342913 L40.7014951,46.1342913 L63.1241948,23.7723577 C65.044357,21.8573992 65.0485754,18.7484195 63.1336169,16.8282573 C63.1304805,16.8251124 63.1273398,16.8219717 63.1241948,16.8188352 L46.2596562,1.24050655e-14 L46.2596562,1.24050655e-14 L5.59744871e-14,46.1342913 Z" id="path-1"></path>
        <path d="M42.7075797,1.24050655e-14 L2.68491041,39.961752 C-0.729285564,43.3707513 -0.729285564,48.8978313 2.68491041,52.3068306 L43.372017,92.9320085 L57.5166032,78.8089514 C60.9307991,75.3999521 60.9307991,69.8728721 57.5166032,66.4638728 L37.1560315,46.1342913 L56.8521659,26.4681358 C60.2663619,23.0591364 60.2663619,17.5320565 56.8521659,14.1230571 L42.7075797,1.24050655e-14 Z" id="path-3"></path>
    </defs>
    <g id="页面-1" stroke="none" stroke-width="1" fill="none" fill-rule="evenodd">
        <g id="cola-定稿" transform="translate(-878.000000, -196.000000)">
            <g id="编组" transform="translate(878.000000, 196.000000)">
                <g id="蒙版" transform="translate(26.597052, 0.831158)">
                    <mask id="mask-2" fill="white">
                        <use xlink:href="#path-1"></use>
                    </mask>
                    <use fill="#0C69FF" xlink:href="#path-1"></use>
                    <path d="M4.97550996e-14,46.2652306 L46.9248849,93.0629479 L63.7894235,76.2441126 C65.7095857,74.3291541 65.7138042,71.2201745 63.7988457,69.3000123 C63.7957092,69.2968673 63.7925685,69.2937266 63.7894235,69.2905902 L40.7014951,46.2652306 L40.7014951,46.2652306 L4.97550996e-14,46.2652306 Z" fill="#1284FD" mask="url(#mask-2)"></path>
                </g>
                <g id="蒙版">
                    <mask id="mask-4" fill="white">
                        <use xlink:href="#path-3"></use>
                    </mask>
                    <use fill="#53E8FF" xlink:href="#path-3"></use>
                    <path d="M-3.49703826,46.1342913 L43.372017,92.9320085 L60.2185583,76.1111088 C62.1375803,74.1950077 62.1399482,71.0860261 60.223847,69.1670041 C60.2220855,69.1652398 60.2203226,69.1634769 60.2185583,69.1617154 L37.1560315,46.1342913 L37.1560315,46.1342913 L-3.49703826,46.1342913 Z" fill="#22D8F5" mask="url(#mask-4)"></path>
                </g>
            </g>
        </g>
    </g>
</svg>